<?xml version="1.0" standalone="no"?>
<!DOCTYPE svg PUBLIC "-//W3C//DTD SVG 20010904//EN"
 "http://www.w3.org/TR/2001/REC-SVG-20010904/DTD/svg10.dtd">
<svg version="1.0" xmlns="http://www.w3.org/2000/svg"
 width="2000.000000pt" height="1500.000000pt" viewBox="0 0 2000.000000 1500.000000"
 preserveAspectRatio="xMidYMid meet">

<g transform="translate(0.000000,1500.000000) scale(0.100000,-0.100000)"
fill="#000000" stroke="none">
<path d="M0 7500 l0 -7500 10000 0 10000 0 0 7500 0 7500 -10000 0 -10000 0 0
-7500z m11230 4357 c181 -47 347 -117 479 -202 66 -43 73 -45 138 -44 37 0
115 6 173 13 58 7 107 11 109 10 2 -2 -76 -86 -174 -187 -209 -218 -249 -269
-315 -402 -85 -172 -120 -317 -175 -725 -55 -406 -90 -554 -166 -700 -130
-250 -401 -482 -741 -635 -48 -21 -85 -41 -84 -44 2 -3 65 -118 141 -256 76
-137 138 -251 139 -252 1 -1 102 -16 226 -33 124 -17 234 -35 244 -39 13 -5
-26 -16 -120 -35 -76 -16 -142 -31 -146 -35 -3 -3 14 -59 38 -125 25 -65 43
-120 41 -122 -1 -2 -88 73 -192 166 -114 102 -196 168 -206 166 -18 -4 -20 -1
-74 99 -130 237 -227 411 -233 417 -4 4 -42 -2 -85 -13 -42 -11 -121 -26 -173
-34 -53 -8 -99 -17 -101 -19 -3 -3 40 -139 94 -303 l100 -298 236 -80 c129
-44 239 -84 243 -88 4 -4 -61 -7 -144 -7 -84 0 -152 -1 -152 -2 0 -2 11 -63
24 -135 13 -73 22 -133 20 -133 -2 0 -76 93 -165 207 -115 149 -167 207 -181
208 -19 0 -34 39 -127 315 l-106 315 -108 7 c-328 20 -619 144 -947 404 -119
94 -469 449 -567 574 -44 58 -111 150 -148 205 -68 101 -171 295 -158 295 5 0
37 -9 72 -20 96 -31 270 -59 429 -71 311 -23 707 32 1066 148 271 87 391 156
471 267 59 83 81 134 150 350 92 289 165 447 276 597 120 162 299 269 504 303
75 12 281 -3 375 -27z m6180 -4812 c90 -47 95 -172 7 -225 -32 -20 -110 -20
-7415 -20 -6646 0 -7386 2 -7413 15 -40 21 -69 71 -69 120 0 47 19 79 64 106
30 19 164 19 7414 19 6499 0 7386 -2 7412 -15z m-13998 -969 c96 -19 149 -40
230 -93 79 -52 137 -120 183 -218 52 -111 66 -181 72 -363 l6 -162 -214 2
-214 3 -5 135 c-5 108 -10 144 -27 181 -41 91 -145 135 -257 110 -112 -25
-166 -113 -166 -271 0 -191 90 -350 313 -552 175 -159 350 -340 405 -421 69
-100 117 -204 144 -314 30 -119 33 -397 5 -516 -44 -185 -162 -342 -308 -412
-124 -58 -184 -70 -359 -69 -136 1 -165 4 -237 26 -106 32 -181 78 -254 155
-124 132 -177 319 -179 621 l0 82 213 0 214 0 6 -142 c8 -200 35 -266 123
-309 82 -39 217 -25 277 29 81 73 96 297 32 468 -47 126 -101 188 -457 529
-154 148 -242 261 -304 390 -71 148 -102 313 -89 484 21 295 157 509 377 593
123 47 326 61 470 34z m1653 -11 c193 -54 337 -186 405 -373 51 -140 52 -157
48 -1137 l-4 -910 -22 -75 c-35 -114 -89 -207 -162 -280 -113 -114 -248 -167
-450 -177 -377 -18 -619 143 -712 473 l-23 79 0 935 0 935 23 80 c72 258 228
407 482 461 87 18 332 12 415 -11z m1630 1 c187 -51 328 -179 393 -356 41
-110 51 -199 52 -427 l0 -213 -214 0 -214 0 -4 228 c-3 211 -5 230 -25 268
-31 58 -74 90 -139 105 -65 15 -152 2 -194 -29 -33 -25 -68 -77 -80 -121 -14
-49 -14 -1793 0 -1842 28 -100 102 -152 215 -152 113 0 187 52 215 152 5 20
10 152 10 294 l0 257 216 0 216 0 -4 -297 c-5 -335 -9 -358 -80 -503 -108
-221 -330 -332 -633 -317 -123 7 -201 24 -290 66 -183 86 -297 266 -326 514
-7 61 -9 390 -7 972 4 873 4 881 26 960 54 195 149 318 303 394 119 57 194 71
364 67 87 -2 163 -10 200 -20z m1175 -1466 l0 -1450 -225 0 -225 0 0 1450 0
1450 225 0 225 0 0 -1450z m1314 1423 c7 -36 466 -2857 466 -2866 0 -4 -102
-6 -227 -5 l-227 3 -41 280 -40 280 -260 0 -260 0 -40 -280 -41 -280 -213 -3
-213 -2 6 27 c8 38 466 2854 466 2864 0 5 139 9 309 9 l309 0 6 -27z m1146
-1213 l0 -1240 373 -2 372 -3 3 -207 2 -208 -605 0 -605 0 0 1450 0 1450 230
0 230 0 0 -1240z m2080 0 l0 -1240 375 0 375 0 0 -210 0 -210 -600 0 -600 0 0
1450 0 1450 225 0 225 0 0 -1240z m1430 -210 l0 -1450 -230 0 -230 0 0 1450 0
1450 230 0 230 0 0 -1450z m919 1413 c6 -21 105 -409 221 -862 115 -454 212
-827 215 -829 3 -3 5 385 5 861 l0 867 205 0 205 0 0 -1450 0 -1450 -234 0
-234 0 -14 48 c-8 26 -131 500 -273 1054 -143 555 -263 1008 -267 1008 -5 0
-8 -475 -8 -1055 l0 -1055 -200 0 -200 0 0 1450 0 1450 285 0 284 0 10 -37z
m1641 -570 c1 -469 3 -603 12 -588 7 11 137 283 290 605 l278 585 229 3 228 2
-268 -526 c-148 -290 -269 -534 -269 -542 0 -8 122 -418 270 -913 149 -494
270 -903 270 -908 0 -8 -77 -11 -234 -11 l-234 0 -16 48 c-8 26 -92 306 -186
622 -94 316 -174 586 -179 599 -6 21 -20 -3 -99 -163 l-92 -188 0 -459 0 -459
-225 0 -225 0 0 1450 0 1450 225 0 225 0 0 -607z"/>
<path d="M11090 11562 c-30 -10 -68 -25 -84 -34 l-30 -15 25 -13 c39 -21 158
-25 220 -6 75 22 125 54 110 69 -20 20 -178 20 -241 -1z"/>
<path d="M10389 10361 c-25 -10 -75 -39 -111 -64 -122 -87 -294 -153 -462
-176 -158 -22 -419 -11 -595 25 l-34 7 34 -63 c91 -172 305 -328 528 -387 127
-34 345 -38 461 -9 162 40 305 131 427 274 83 96 106 148 101 222 -6 78 -39
129 -109 164 -65 32 -168 35 -240 7z m157 -142 c84 -78 65 -160 -69 -305 -97
-105 -225 -156 -392 -157 -143 0 -257 38 -372 124 -29 21 -66 59 -82 83 l-30
44 172 5 c137 4 187 9 247 26 102 30 185 72 258 132 83 67 115 80 184 76 44
-2 64 -9 84 -28z"/>
<path d="M4765 5671 c-49 -12 -92 -39 -115 -72 -50 -70 -50 -61 -50 -998 0
-594 4 -889 11 -916 28 -103 103 -158 218 -158 111 0 172 36 213 126 l23 52 0
885 c0 994 3 953 -71 1026 -55 55 -141 76 -229 55z"/>
<path d="M8846 5519 c-3 -13 -46 -321 -96 -684 -50 -363 -93 -675 -96 -692
l-6 -33 207 0 207 0 -6 33 c-3 17 -49 338 -102 712 -52 374 -97 682 -99 684
-2 2 -6 -7 -9 -20z"/>
</g>
</svg>
