<?xml version="1.0" standalone="no"?>
<!DOCTYPE svg PUBLIC "-//W3C//DTD SVG 20010904//EN"
 "http://www.w3.org/TR/2001/REC-SVG-20010904/DTD/svg10.dtd">
<svg version="1.0" xmlns="http://www.w3.org/2000/svg"
 width="2000.000000pt" height="1500.000000pt" viewBox="0 0 2000.000000 1500.000000"
 preserveAspectRatio="xMidYMid meet">

<g transform="translate(0.000000,1500.000000) scale(0.100000,-0.100000)"
fill="#000000" stroke="none">
<path d="M0 7500 l0 -7500 10000 0 10000 0 0 7500 0 7500 -10000 0 -10000 0 0
-7500z m13205 4611 c83 -33 183 -133 216 -216 l24 -60 3 -1757 2 -1758 -3450
0 -3450 0 2 1763 3 1762 27 57 c31 66 105 149 163 183 97 57 -121 54 3275 52
l3125 -2 60 -24z m243 -4213 l-3 -223 -31 -65 c-53 -109 -143 -184 -259 -214
-53 -14 -389 -16 -3155 -16 -2766 0 -3102 2 -3155 16 -116 30 -207 105 -259
214 l-31 65 -3 223 -3 222 3451 0 3451 0 -3 -222z m-2408 -1273 l0 -655 296 0
296 0 29 -29 c51 -51 33 -137 -33 -160 -22 -8 -504 -11 -1590 -11 -1718 0
-1600 -4 -1634 62 -13 26 -14 38 -5 69 20 68 25 69 308 69 l253 0 0 655 0 655
1040 0 1040 0 0 -655z m-2320 -2550 l0 -995 -297 2 -298 3 -3 993 -2 992 300
0 300 0 0 -995z m5420 180 l0 -815 130 0 130 0 0 -180 0 -180 -262 0 -263 0
-167 167 -168 168 0 827 0 828 300 0 300 0 0 -815z m1020 0 l0 -815 130 0 130
0 0 -180 0 -180 -262 0 -263 0 -167 167 -168 168 0 827 0 828 300 0 300 0 0
-815z m-10720 430 l0 -195 -780 0 -780 0 0 195 0 195 780 0 780 0 0 -195z
m678 -882 l-3 -718 -120 -3 -119 -3 -178 178 -178 178 0 365 0 365 177 177
178 178 122 0 123 0 -2 -717z m785 539 l177 -178 0 -252 0 -252 -435 0 -435 0
0 125 0 125 160 0 160 0 0 125 0 125 -160 0 -160 0 0 180 0 180 258 0 258 0
177 -178z m1017 -542 l0 -720 -117 0 -118 0 -182 182 -183 183 0 360 0 360
177 177 178 178 122 0 123 0 0 -720z m782 543 l178 -178 0 -107 0 -108 -300 0
-300 0 0 105 0 104 -132 3 -133 3 -3 178 -2 177 257 0 258 0 177 -177z m1801
-1 l177 -177 0 -543 0 -542 -300 0 -300 0 0 540 0 540 -130 0 -130 0 0 92 0
93 87 87 88 88 165 0 165 0 178 -178z m1007 -77 l0 -255 343 0 343 0 152 -159
152 -159 0 -139 0 -138 -167 -167 -168 -168 -132 0 -133 0 0 275 0 275 -326 0
-326 0 -154 148 -153 147 -1 135 0 135 162 162 163 163 122 0 123 0 0 -255z
m832 148 l108 -108 0 -82 0 -83 -275 0 -275 0 0 60 0 60 -150 0 -150 0 0 130
0 130 317 0 318 0 107 -107z m978 -613 l0 -720 -117 0 -118 0 -182 182 -183
183 0 360 0 360 177 177 178 178 122 0 123 0 0 -720z m782 543 l178 -178 0
-252 0 -253 -430 0 -430 0 0 125 0 125 155 0 155 0 0 125 0 125 -155 0 -155 0
0 180 0 180 252 0 253 0 177 -177z m3028 -78 l0 -255 342 0 343 0 152 -152
153 -153 0 -145 0 -145 -167 -167 -168 -168 -127 0 -128 0 -2 273 -3 272 -328
5 -328 5 -149 143 -150 144 0 141 0 142 157 157 158 158 122 0 123 0 0 -255z
m844 146 l107 -109 -3 -78 -3 -79 -272 -3 -272 -2 -3 57 -3 58 -152 3 -153 3
0 129 0 130 323 0 323 0 108 -109z m-13006 -674 l2 -657 -312 2 -313 3 -3 645
c-1 355 0 651 3 658 3 10 71 12 312 10 l308 -3 3 -658z m3912 -215 l0 -77
-183 -183 -183 -182 -249 2 -250 3 -3 168 -2 167 135 0 135 0 0 90 0 90 300 0
300 0 0 -78z m2660 -102 l0 -69 133 -3 132 -3 0 -130 0 -130 -306 -3 -306 -2
-127 149 -126 150 0 55 0 56 300 0 300 0 0 -70z m5630 0 l0 -70 130 0 130 0 0
-135 0 -135 -307 0 -308 0 -127 153 -128 152 0 53 0 52 305 0 305 0 0 -70z
m-10160 -83 l0 -82 -88 -88 -87 -87 -313 0 -312 0 0 170 0 170 400 0 400 0 0
-83z m7210 6 l0 -78 -92 -92 -93 -93 -307 0 -308 0 0 170 0 170 400 0 400 0 0
-77z"/>
<path d="M8963 11486 c-191 -62 -289 -275 -208 -454 29 -64 121 -163 165 -177
19 -6 20 -15 20 -150 l0 -143 -43 -25 c-133 -78 -203 -252 -158 -392 46 -141
173 -235 319 -235 l67 0 262 -262 262 -263 -1 -80 c-1 -106 26 -177 93 -246
137 -140 352 -139 485 3 68 73 89 126 89 228 0 76 -3 92 -33 152 -34 69 -87
124 -148 153 l-34 16 0 158 0 157 35 17 c59 28 126 98 156 162 40 83 41 194 3
275 -31 68 -93 134 -159 168 -72 37 -188 42 -267 12 -75 -28 -150 -96 -185
-168 -24 -50 -28 -69 -28 -147 0 -78 4 -97 28 -147 33 -68 109 -139 172 -164
l45 -17 0 -146 -1 -146 -67 -33 -67 -32 -227 227 c-225 225 -227 228 -209 248
10 11 29 40 42 65 33 63 35 212 2 282 -31 68 -94 131 -163 164 l-60 28 0 131
0 130 48 19 c64 27 145 105 173 169 19 42 24 69 24 142 0 79 -4 96 -28 142
-39 76 -78 115 -149 153 -52 28 -75 34 -138 37 -45 2 -92 -3 -117 -11z m166
-204 c92 -49 92 -190 2 -237 -44 -22 -113 -19 -145 6 -133 104 -5 310 143 231z
m0 -920 c123 -66 74 -252 -66 -252 -50 0 -82 18 -110 59 -79 117 52 259 176
193z m919 -2 c125 -76 76 -250 -72 -250 -43 0 -53 4 -87 39 -35 34 -39 44 -39
87 0 113 107 179 198 124z m29 -973 c90 -89 30 -227 -98 -227 -75 0 -129 57
-129 137 0 118 143 175 227 90z"/>
<path d="M9870 11485 c-99 -33 -184 -123 -215 -229 -47 -157 29 -322 182 -398
56 -28 75 -32 142 -31 57 0 90 6 126 22 l49 22 238 -238 238 -238 -16 -49
c-24 -69 -15 -185 18 -251 33 -63 109 -135 170 -161 l48 -19 0 -148 0 -147
-27 -11 c-60 -21 -97 -46 -139 -92 -114 -127 -112 -325 5 -450 163 -175 437
-137 548 75 25 47 28 64 28 148 0 81 -4 102 -25 145 -29 60 -100 134 -152 158
l-38 18 0 154 0 154 53 34 c116 75 172 179 165 307 -8 127 -68 220 -179 280
-83 44 -176 52 -264 22 l-60 -21 -238 238 -239 238 17 58 c46 155 -33 324
-184 396 -59 29 -186 36 -251 14z m178 -205 c42 -26 72 -76 72 -120 0 -136
-192 -181 -255 -60 -61 119 70 248 183 180z m951 -918 c92 -49 92 -190 2 -237
-96 -49 -201 15 -201 122 0 101 109 163 199 115z m-6 -947 c43 -21 69 -59 74
-110 17 -145 -185 -205 -252 -75 -60 116 62 242 178 185z"/>
<path d="M10833 11486 c-96 -31 -178 -110 -214 -205 -29 -77 -24 -195 11 -266
100 -205 376 -253 539 -93 24 24 56 68 70 98 22 47 26 69 26 145 0 78 -4 97
-28 147 -32 65 -95 125 -165 159 -58 27 -177 35 -239 15z m159 -202 c44 -21
70 -58 75 -109 17 -145 -185 -205 -252 -75 -60 116 60 241 177 184z"/>
<path d="M8963 9616 c-217 -71 -303 -333 -171 -523 84 -123 266 -171 406 -108
81 36 151 110 181 190 62 163 -18 357 -177 428 -59 26 -180 33 -239 13z m166
-204 c92 -49 92 -190 2 -237 -92 -47 -201 17 -201 120 0 102 108 166 199 117z"/>
</g>
</svg>
