<svg xmlns="http://www.w3.org/2000/svg" version="1.1" xmlns:xlink="http://www.w3.org/1999/xlink" xmlns:svgjs="http://svgjs.dev/svgjs" width="1500" height="1500" viewBox="0 0 1500 1500"><rect width="1500" height="1500" fill="#ffffff"></rect><g transform="matrix(0.6666666666666666,0,0,0.6666666666666666,249.39393939393938,438.5856950067477)"><svg viewBox="0 0 396 247" data-background-color="#3d2200" preserveAspectRatio="xMidYMid meet" height="935" width="1500" xmlns="http://www.w3.org/2000/svg" xmlns:xlink="http://www.w3.org/1999/xlink"><g id="tight-bounds" transform="matrix(1,0,0,1,0.2400000000000091,-0.09999999999999432)"><svg viewBox="0 0 395.52 247.2" height="247.2" width="395.52"><g><svg></svg></g><g><svg viewBox="0 0 395.52 247.2" height="247.2" width="395.52"><g><path d="M55.039 247.2l26.403-45.732 1.97 0-25.364 43.933h279.424l-25.364-43.933 1.97 0 26.403 45.732zM197.76 0l26.403 45.732h-1.969l-24.434-42.32-24.434 42.32-1.969 0z" fill="#000000" fill-rule="nonzero" stroke="none" stroke-width="1" stroke-linecap="butt" stroke-linejoin="miter" stroke-miterlimit="10" stroke-dasharray="" stroke-dashoffset="0" font-family="none" font-weight="none" font-size="none" text-anchor="none" style="mix-blend-mode: normal" data-fill-palette-color="tertiary"></path></g><g transform="matrix(1,0,0,1,102.8238125006215,67.97999999999999)"><svg viewBox="0 0 189.87237499875698 111.24" height="111.24" width="189.87237499875698"><g><svg viewBox="0 0 342.048128342246 200.39478516577537" height="111.24" width="189.87237499875698"><g><svg viewBox="0 0 342.048128342246 111.24" height="111.24" width="342.048128342246"><g id="textblocktransform"><svg viewBox="0 0 342.048128342246 111.24" height="111.24" width="342.048128342246" id="textblock"><g><svg viewBox="0 0 342.048128342246 111.24" height="111.24" width="342.048128342246"><g transform="matrix(1,0,0,1,0,0)"><svg width="342.048128342246" viewBox="0 -50 293.75 90.5" height="111.24" data-palette-color="#f8fddd"><svg></svg><svg></svg><g class="wordmark-text-0" data-fill-palette-color="primary" id="text-0"><path d="M12.5-6.25h-12.5v-43.75h37.5v6.25h6.25v18.75h-12.5v6.25h6.25v6.25h6.25v6.25h-18.75v-6.25h-6.25v-6.25h-6.25zM12.5-43.75v18.75h12.5v-6.25h6.25v-12.5zM87.5-6.25h-31.25v-6.25h-6.25v-18.75h6.25v-6.25h31.25v6.25h6.25v12.5h-31.25v6.25h25zM62.5-31.25v6.25h18.75v-6.25zM131.25-6.25h-12.5v-25h-12.5v-6.25h12.5v-12.5h12.5v12.5h12.5v6.25h-12.5zM168.75-37.5v6.25h6.25v6.25h-6.25v18.75h-12.5v-31.25zM175-37.5h18.75v6.25h-18.75zM237.5-6.25h-31.25v-6.25h-6.25v-18.75h6.25v-6.25h31.25v6.25h6.25v18.75h-6.25zM212.5-31.25v18.75h18.75v-18.75z" fill="#000000" fill-rule="nonzero" stroke="none" stroke-width="1" stroke-linecap="butt" stroke-linejoin="miter" stroke-miterlimit="10" stroke-dasharray="" stroke-dashoffset="0" font-family="none" font-weight="none" font-size="none" text-anchor="none" style="mix-blend-mode: normal" data-fill-palette-color="primary" opacity="1"></path><path transform="translate(0,46.75)" d="M31.25-6.25h-12.5v-25h-12.5v-6.25h12.5v-12.5h12.5v12.5h12.5v6.25h-12.5zM81.25-43.75h-12.5v-6.25h12.5zM93.75-6.25h-37.5v-6.25h12.5v-18.75h-6.25v-6.25h18.75v25h12.5zM137.5-6.25h-31.25v-6.25h-6.25v-18.75h6.25v-6.25h31.25v6.25h6.25v12.5h-31.25v6.25h25zM112.5-31.25v6.25h18.75v-6.25zM162.5-6.25h-12.5v-31.25h37.5v6.25h6.25v25h-12.5v-25h-18.75zM243.75-6.25h-37.5v-6.25h-6.25v-18.75h6.25v-6.25h25v-12.5h12.5zM212.5-31.25v18.75h18.75v-18.75zM293.75-6.25h-37.5v-6.25h-6.25v-6.25h6.25v-6.25h25v-6.25h-25v-6.25h31.25v6.25h6.25zM262.5-18.75v6.25h18.75v-6.25z" fill="#000000" fill-rule="nonzero" stroke="none" stroke-width="1" stroke-linecap="butt" stroke-linejoin="miter" stroke-miterlimit="10" stroke-dasharray="" stroke-dashoffset="0" font-family="none" font-weight="none" font-size="none" text-anchor="none" style="mix-blend-mode: normal" data-fill-palette-color="primary" opacity="1"></path></g></svg></g></svg></g></svg></g></svg></g><g transform="matrix(1,0,0,1,124.95150021363838,123.52794516577539)"><svg viewBox="0 0 92.14512791496925 76.86684" height="76.86684" width="92.14512791496925"><g><svg xmlns="http://www.w3.org/2000/svg" xmlns:xlink="http://www.w3.org/1999/xlink" version="1.1" x="0" y="0" viewBox="1.497 8 97.107 81.006" enable-background="new 0 0 100 100" xml:space="preserve" height="76.86684" width="92.14512791496925" class="icon-icon-0" data-fill-palette-color="accent" id="icon-0"><g fill="#aecf75" data-fill-palette-color="accent"><polygon fill="#000000" points="9.598,89.006 98.604,89.006 98.604,16.101 58.201,16.101 58.201,24.201 90.503,24.201    90.503,80.905 17.698,80.905 17.698,56.604 9.598,56.604  " data-fill-palette-color="accent"></polygon><path fill="#000000" d="M1.497 48.503h8.101v-8.101h8.101v8.101h8.101v-8.101h8.101v8.101H42v-8.101h8.101v8.101h8.101V32.302h-8.101V16.101H42V8h-8.101v8.101h-8.101V8h-8.101v8.101H9.598v16.201H1.497V48.503zM17.698 32.302v-8.101h8.101v8.101H17.698zM33.899 32.302v-8.101H42v8.101H33.899z" data-fill-palette-color="accent"></path></g></svg></g></svg></g><g></g></svg></g></svg></g></svg></g><defs></defs></svg><rect width="395.52" height="247.2" fill="none" stroke="none" visibility="hidden"></rect></g></svg></g></svg>